# xmcd
#
# Track frame offsets: 
#        150
#        13975
#        30251
#        47362
#        62672
#        76438
#        92492
#        121449
#        136122
#        152122
#        163946
#        182575
#        201242
#        217723
#        230961
#        244083
#
# Disc length: 3465 seconds
#
# Revision: 9
# Processed by: cddbd v1.5.2PL0 Copyright (c) Steve Scherf et al.
# Submitted via: ExactAudioCopyFreeDBPlugin 1.0
#
DISCID=cf0d8710
DTITLE=蔡琴 - 藍色的夢 蔡琴暢銷金典專輯 Disc1
DYEAR=1998
DGENRE=Pop-Folk
TTITLE0=藍色的夢
TTITLE1=夢中人
TTITLE2=懷念
TTITLE3=不了情
TTITLE4=戀痕
TTITLE5=未識綺羅香
TTITLE6=情人的眼淚
TTITLE7=秦淮河畔
TTITLE8=癡情淚
TTITLE9=初戀
TTITLE10=明日之歌
TTITLE11=小窗相思
TTITLE12=神秘女郎
TTITLE13=願嫁漢家郎
TTITLE14=情人山
TTITLE15=重相逢
EXTD=YEAR: 2002
EXTT0=
EXTT1=
EXTT2=
EXTT3=
EXTT4=
EXTT5=
EXTT6=
EXTT7=
EXTT8=
EXTT9=
EXTT10=
EXTT11=
EXTT12=
EXTT13=
EXTT14=
EXTT15=
PLAYORDER=
